<?xml version="1.0" encoding="UTF-8" standalone="no"?>
<!DOCTYPE svg PUBLIC "-//W3C//DTD SVG 1.1//EN" "http://www.w3.org/Graphics/SVG/1.1/DTD/svg11.dtd">
<svg width="100%" height="100%" viewBox="0 0 400 400" version="1.1" xmlns="http://www.w3.org/2000/svg" xmlns:xlink="http://www.w3.org/1999/xlink" xml:space="preserve" xmlns:serif="http://www.serif.com/" style="fill-rule:evenodd;clip-rule:evenodd;stroke-linejoin:round;stroke-miterlimit:2;">
    <g id="CG-Logo" serif:id="CG Logo" transform="matrix(0.763341,0,0,0.763341,47.3319,7.81952)">
        <g transform="matrix(0.655136,0.655136,-0.655136,0.655136,191.293,-124.837)">
            <path d="M400,95.831L400,386.709L109.121,386.709L109.121,95.831L400,95.831ZM386.508,109.322L122.613,109.322L122.613,373.218L386.508,373.218L386.508,109.322Z"/>
        </g>
        <g transform="matrix(0.557833,0.557833,-0.557833,0.557833,192.586,-76.591)">
            <path d="M400,95.831L400,386.709L109.121,386.709L109.121,95.831L400,95.831ZM384.155,111.676L124.966,111.676L124.966,370.864L384.155,370.864L384.155,111.676Z"/>
        </g>
        <g transform="matrix(0.467842,0.467842,-0.467842,0.467842,193.782,-31.9706)">
            <path d="M400,95.831L400,386.709L109.121,386.709L109.121,95.831L400,95.831ZM381.107,114.724L128.014,114.724L128.014,367.817L381.107,367.817L381.107,114.724Z"/>
        </g>
        <g transform="matrix(0.365514,0.365514,-0.365514,0.365514,195.142,18.7669)">
            <path d="M380.632,386.709L252.428,386.709L109.121,243.403L109.121,115.199L220.455,226.532L199.156,247.831L133.497,182.172L131.667,225.281L261.547,355.161L306.026,354.701L251.993,300.669L273.292,279.37L380.632,386.709ZM128.537,95.831L252.073,95.831L251.921,95.983L282.132,126.193L263.063,145.262L237.374,119.574L194.265,121.404L366.794,293.933L367.254,249.454L314.868,197.067L303.011,208.924L286.456,192.369L304.823,174.003L304.827,174.006L317.385,161.447L400,244.062L400,367.293L128.537,95.831ZM206.927,386.709L109.121,386.709L109.121,288.904L150.047,329.829L137.291,329.829L137.291,358.54L166.002,358.54L166.002,345.784L206.927,386.709ZM297.27,95.831L400,95.831L400,198.561L356.581,155.142L369.4,155.142L369.4,126.431L340.689,126.431L340.689,139.25L297.27,95.831Z"/>
        </g>
    </g>
    <g transform="matrix(0.517411,0,0,0.517411,-24.4169,170.049)">
        <g transform="matrix(67.8189,0,0,67.8189,810.808,344.987)">
        </g>
        <text x="54.534px" y="344.987px" style="font-family:'Futura-Medium', 'Futura', sans-serif;font-weight:500;font-size:67.819px;fill:rgb(35,31,32);">Cont<tspan x="199.146px 235.373px 273.224px " y="344.987px 344.987px 344.987px ">ext</tspan>ual Gr<tspan x="489.231px 529.896px " y="344.987px 344.987px ">ap</tspan>hics LL<tspan x="763.288px " y="344.987px ">C</tspan></text>
    </g>
</svg>
